# xmcd
#
# Track frame offsets:
#	150
#	13754
#	23737
#	36092
#	48302
#	55776
#	65248
#	76467
#	88615
#	102632
#	111482
#	123661
#	136190
#	146451
#	160025
#	172353
#	186120
#	198631
#	212261
#	225847
#	236513
#	248180
#	259219
#	269767
#
# Disc length: 3778 seconds
#
# Revision: 0
# Processed by: cddbd v1.5.2PL0 Copyright (c) Steve Scherf et al.
# Submitted via: audiograbber 1.83.01
#
DISCID=5e0ec018
DTITLE=Various Artist - Record No. 23 and 24 - Country Strings
DYEAR=1900
DGENRE=Country
TTITLE0=Lester Flatt and Earl Scruggs - Earl's Breakdown
TTITLE1=Don Reno and Red Smiley - Follow The Leader
TTITLE2=Stanley Brothers - Hard Times
TTITLE3=Bill Keith and Jim Rooney - Devil's Dream, Sailor's Hornpipe
TTITLE4=Buck Trent - Banjo Buck
TTITLE5=Foggy Mountain Boys - Cripple Creek
TTITLE6=Lester Flatt and Earl Scruggs and the Foggy Mountain Boys - The Old Folks
TTITLE6=(Soldier's Joy)
TTITLE7=W. A. Hinton - Leather Brithches
TTITLE8=Chalie Poole and Roy Harvey - Southern Medley
TTITLE9=Arthur (Guitar Boogie) Smith and Don Reno - Feudin' Banjos
TTITLE10=Arthur (Guitar Boogie) Smith  - Banjo Buster
TTITLE11=Earl Scruggs - Nashville Skyline Rag
TTITLE12=Vassar Clements - Little Rock Getaway
TTITLE13=Bill Monroe (Byron Berline, fiddle) - The Gold Rush
TTITLE14=(Fiddlin') Arthur Smith - Blackberry Blossoms
TTITLE15=Leake County Revelers - Wednesdey Night Waltz
TTITLE16=Roy Acuff (Tommy Magness, fiddle) - Pretty Little Widow
TTITLE17=Tommy Jackson - Bonapart's Retreat
TTITLE18=Solomon and Hughes - Ragtime Annie
TTITLE19=Benny Thomason - Tom And Jerry
TTITLE20=Johnny Gimble - Gardenia Waltz
TTITLE21=Saddle Tramps (J.R. Chatwell, fiddle) - Hot As I AM
TTITLE22=Howdy Forrester - The Memory Waltz
TTITLE23=Curly Fox - The Mockingbird Reel
EXTD=
EXTT0=
EXTT1=
EXTT2=
EXTT3=
EXTT4=
EXTT5=
EXTT6=
EXTT7=
EXTT8=
EXTT9=
EXTT10=
EXTT11=
EXTT12=
EXTT13=
EXTT14=
EXTT15=
EXTT16=
EXTT17=
EXTT18=
EXTT19=
EXTT20=
EXTT21=
EXTT22=
EXTT23=
PLAYORDER=
